<svg width="725" height="258" viewBox="0 0 725 258" fill="none" xmlns="http://www.w3.org/2000/svg">
<rect x="0.875465" width="258" height="258" rx="129" fill="black"/>
<path d="M233.935 128.14L198.935 107.933V148.347L233.935 128.14ZM34.4155 131.64L202.435 131.64V124.64L34.4155 124.64V131.64Z" fill="#16C75F"/>
<circle cx="34.8455" cy="128.57" r="9.89" fill="#16C75F"/>
<circle cx="34.8455" cy="128.57" r="4.73" fill="black"/>
<path d="M144.925 119.807L153.597 135.991L123.855 135.991L115.685 119.807L144.925 119.807Z" fill="black"/>
<path d="M187.495 219.3L187.526 178.886L152.511 199.067L187.495 219.3ZM83.8431 46.4677L168.733 193.756L174.798 190.261L89.9079 42.9723L83.8431 46.4677Z" fill="#6823BC"/>
<rect x="90.0481" y="30.96" width="19.78" height="19.78" transform="rotate(58.8755 90.0481 30.96)" fill="#6823BC"/>
<rect x="88.077" y="38.9395" width="8.15604" height="8.15604" transform="rotate(58.8755 88.077 38.9395)" fill="black"/>
<path d="M336.719 50.6594H329.06V71.38H314.91V12.685H338.009C344.97 12.685 350.412 14.2303 354.335 17.3209C358.259 20.4116 360.221 24.7787 360.221 30.4225C360.221 34.5075 359.388 37.8937 357.722 40.5812C356.082 43.2687 353.502 45.4456 349.982 47.1119L362.237 70.7753V71.38H347.079L336.719 50.6594ZM329.06 39.7347H338.009C340.696 39.7347 342.712 39.0359 344.056 37.6384C345.426 36.2141 346.112 34.2387 346.112 31.7125C346.112 29.1862 345.426 27.2109 344.056 25.7866C342.685 24.3353 340.67 23.6097 338.009 23.6097H329.06V39.7347Z" fill="#16C75F"/>
<path d="M389.246 72.1862C382.554 72.1862 377.139 70.1975 373 66.22C368.861 62.2156 366.792 57.0153 366.792 50.6191V49.4903C366.792 45.0291 367.612 41.0919 369.251 37.6787C370.917 34.2656 373.336 31.6319 376.507 29.7775C379.679 27.8962 383.441 26.9556 387.795 26.9556C393.922 26.9556 398.76 28.8637 402.307 32.68C405.855 36.4694 407.629 41.7637 407.629 48.5631V53.8441H380.619C381.103 56.2897 382.165 58.2112 383.804 59.6087C385.443 61.0062 387.566 61.705 390.173 61.705C394.473 61.705 397.833 60.2 400.251 57.19L406.46 64.5269C404.766 66.865 402.361 68.7328 399.244 70.1303C396.153 71.5009 392.82 72.1862 389.246 72.1862ZM387.714 37.4369C383.737 37.4369 381.372 40.0706 380.619 45.3381H394.325V44.29C394.379 42.1131 393.828 40.4334 392.673 39.2509C391.517 38.0416 389.864 37.4369 387.714 37.4369Z" fill="#16C75F"/>
<path d="M411.418 49.1275C411.418 42.1937 412.923 36.765 415.933 32.8412C418.943 28.9175 423.095 26.9556 428.39 26.9556C432.851 26.9556 436.425 28.7831 439.113 32.4381L440.08 27.7619H451.851V88.15H438.226V67.7519C435.619 70.7081 432.313 72.1862 428.309 72.1862C423.149 72.1862 419.037 70.1975 415.973 66.22C412.936 62.2156 411.418 56.5181 411.418 49.1275ZM425.003 49.9741C425.003 57.7947 427.261 61.705 431.776 61.705C434.893 61.705 437.043 60.5225 438.226 58.1575V40.9037C437.097 38.5925 434.974 37.4369 431.856 37.4369C427.637 37.4369 425.366 40.8097 425.044 47.5553L425.003 49.9741Z" fill="#16C75F"/>
<path d="M485.553 66.6634C482.677 70.3453 478.794 72.1862 473.902 72.1862C469.119 72.1862 465.49 70.8022 463.018 68.0341C460.572 65.2391 459.35 61.2347 459.35 56.0209V27.7619H472.935V56.1016C472.935 59.8372 474.749 61.705 478.377 61.705C481.495 61.705 483.712 60.5897 485.029 58.3591V27.7619H498.695V71.38H485.956L485.553 66.6634Z" fill="#16C75F"/>
<path d="M527.276 72.1862C520.584 72.1862 515.169 70.1975 511.03 66.22C506.891 62.2156 504.822 57.0153 504.822 50.6191V49.4903C504.822 45.0291 505.642 41.0919 507.281 37.6787C508.947 34.2656 511.366 31.6319 514.537 29.7775C517.709 27.8962 521.471 26.9556 525.825 26.9556C531.952 26.9556 536.79 28.8637 540.337 32.68C543.885 36.4694 545.659 41.7637 545.659 48.5631V53.8441H518.649C519.133 56.2897 520.195 58.2112 521.834 59.6087C523.473 61.0062 525.596 61.705 528.203 61.705C532.503 61.705 535.863 60.2 538.281 57.19L544.49 64.5269C542.796 66.865 540.391 68.7328 537.274 70.1303C534.183 71.5009 530.85 72.1862 527.276 72.1862ZM525.744 37.4369C521.767 37.4369 519.402 40.0706 518.649 45.3381H532.355V44.29C532.409 42.1131 531.858 40.4334 530.703 39.2509C529.547 38.0416 527.894 37.4369 525.744 37.4369Z" fill="#16C75F"/>
<path d="M573.998 59.125C573.998 57.9694 573.394 57.0422 572.184 56.3434C570.975 55.6447 568.677 54.9191 565.291 54.1666C561.905 53.4141 559.11 52.4331 556.906 51.2237C554.702 49.9875 553.022 48.4959 551.867 46.7491C550.711 45.0022 550.133 43 550.133 40.7425C550.133 36.7381 551.786 33.4459 555.092 30.8659C558.397 28.2591 562.724 26.9556 568.072 26.9556C573.824 26.9556 578.446 28.2591 581.94 30.8659C585.434 33.4728 587.18 36.8994 587.18 41.1456H573.555C573.555 37.6519 571.714 35.905 568.032 35.905C566.608 35.905 565.412 36.3081 564.444 37.1144C563.477 37.8937 562.993 38.8747 562.993 40.0572C562.993 41.2666 563.584 42.2475 564.767 43C565.949 43.7525 567.83 44.3706 570.41 44.8544C573.017 45.3381 575.302 45.9159 577.264 46.5878C583.821 48.8453 587.1 52.89 587.1 58.7219C587.1 62.6994 585.326 65.9378 581.779 68.4372C578.258 70.9366 573.689 72.1862 568.072 72.1862C564.337 72.1862 561.004 71.5144 558.075 70.1706C555.145 68.8269 552.861 66.9994 551.222 64.6881C549.582 62.3769 548.763 59.9447 548.763 57.3916H561.461C561.515 59.4072 562.187 60.8853 563.477 61.8259C564.767 62.7397 566.42 63.1966 568.435 63.1966C570.29 63.1966 571.674 62.8203 572.587 62.0678C573.528 61.3153 573.998 60.3344 573.998 59.125Z" fill="#16C75F"/>
<path d="M609.312 16.9178V27.7619H616.488V37.195H609.312V57.1497C609.312 58.7891 609.608 59.9312 610.199 60.5762C610.79 61.2212 611.959 61.5437 613.706 61.5437C615.05 61.5437 616.179 61.4631 617.092 61.3019V71.0172C614.647 71.7966 612.094 72.1862 609.433 72.1862C604.757 72.1862 601.303 71.0844 599.073 68.8806C596.842 66.6769 595.727 63.3309 595.727 58.8428V37.195H590.164V27.7619H595.727V16.9178H609.312Z" fill="#16C75F"/>
<path d="M329.987 157.38H315.877V98.685H329.987V157.38Z" fill="#6823BC"/>
<path d="M351.675 113.762L352.118 118.882C355.128 114.931 359.28 112.956 364.575 112.956C369.117 112.956 372.503 114.313 374.734 117.027C376.991 119.742 378.16 123.827 378.241 129.282V157.38H364.615V129.847C364.615 127.643 364.172 126.03 363.285 125.009C362.398 123.961 360.785 123.437 358.447 123.437C355.787 123.437 353.811 124.485 352.521 126.581V157.38H338.936V113.762H351.675Z" fill="#6823BC"/>
<path d="M401.622 102.918V113.762H408.798V123.195H401.622V143.15C401.622 144.789 401.918 145.931 402.509 146.576C403.1 147.221 404.269 147.544 406.016 147.544C407.36 147.544 408.489 147.463 409.402 147.302V157.017C406.957 157.797 404.404 158.186 401.743 158.186C397.067 158.186 393.613 157.084 391.383 154.881C389.152 152.677 388.037 149.331 388.037 144.843V123.195H382.474V113.762H388.037V102.918H401.622Z" fill="#6823BC"/>
<path d="M435.283 158.186C428.591 158.186 423.176 156.197 419.037 152.22C414.898 148.216 412.829 143.015 412.829 136.619V135.49C412.829 131.029 413.649 127.092 415.288 123.679C416.954 120.266 419.373 117.632 422.544 115.777C425.715 113.896 429.478 112.956 433.832 112.956C439.959 112.956 444.797 114.864 448.344 118.68C451.892 122.469 453.665 127.764 453.665 134.563V139.844H426.656C427.14 142.29 428.201 144.211 429.841 145.609C431.48 147.006 433.603 147.705 436.21 147.705C440.51 147.705 443.87 146.2 446.288 143.19L452.496 150.527C450.803 152.865 448.398 154.733 445.28 156.13C442.19 157.501 438.857 158.186 435.283 158.186ZM433.751 123.437C429.774 123.437 427.409 126.071 426.656 131.338H440.362V130.29C440.416 128.113 439.865 126.433 438.71 125.251C437.554 124.042 435.901 123.437 433.751 123.437Z" fill="#6823BC"/>
<path d="M485.553 126.057L481.078 125.735C476.805 125.735 474.064 127.078 472.854 129.766V157.38H459.269V113.762H472.008L472.451 119.365C474.735 115.092 477.92 112.956 482.005 112.956C483.456 112.956 484.72 113.117 485.795 113.439L485.553 126.057Z" fill="#6823BC"/>
<path d="M508.087 147.705C509.995 147.705 511.474 147.194 512.522 146.173C513.57 145.125 514.08 143.674 514.054 141.819H526.792C526.792 146.603 525.072 150.527 521.632 153.591C518.219 156.654 513.812 158.186 508.41 158.186C502.067 158.186 497.069 156.197 493.414 152.22C489.759 148.242 487.931 142.733 487.931 135.692V135.127C487.931 130.72 488.737 126.837 490.35 123.477C491.989 120.091 494.341 117.497 497.405 115.697C500.468 113.869 504.096 112.956 508.289 112.956C513.96 112.956 518.461 114.528 521.794 117.672C525.126 120.817 526.792 125.076 526.792 130.451H514.054C514.054 128.194 513.503 126.46 512.401 125.251C511.299 124.042 509.821 123.437 507.966 123.437C504.446 123.437 502.39 125.681 501.799 130.169C501.61 131.593 501.516 133.555 501.516 136.055C501.516 140.435 502.04 143.472 503.089 145.165C504.137 146.858 505.803 147.705 508.087 147.705Z" fill="#6823BC"/>
<path d="M553.64 158.186C546.949 158.186 541.533 156.197 537.395 152.22C533.256 148.216 531.186 143.015 531.186 136.619V135.49C531.186 131.029 532.006 127.092 533.645 123.679C535.312 120.266 537.73 117.632 540.902 115.777C544.073 113.896 547.835 112.956 552.189 112.956C558.317 112.956 563.154 114.864 566.702 118.68C570.249 122.469 572.023 127.764 572.023 134.563V139.844H545.014C545.497 142.29 546.559 144.211 548.198 145.609C549.838 147.006 551.961 147.705 554.568 147.705C558.868 147.705 562.227 146.2 564.646 143.19L570.854 150.527C569.161 152.865 566.755 154.733 563.638 156.13C560.547 157.501 557.215 158.186 553.64 158.186ZM552.109 123.437C548.131 123.437 545.766 126.071 545.014 131.338H558.72V130.29C558.774 128.113 558.223 126.433 557.067 125.251C555.911 124.042 554.259 123.437 552.109 123.437Z" fill="#6823BC"/>
<path d="M618.02 135.893C618.02 142.666 616.488 148.081 613.424 152.139C610.387 156.171 606.275 158.186 601.088 158.186C597.084 158.186 593.792 156.722 591.212 153.792V174.15H577.626V113.762H590.325L590.728 117.793C593.335 114.568 596.761 112.956 601.008 112.956C606.383 112.956 610.562 114.944 613.545 118.922C616.528 122.872 618.02 128.315 618.02 135.248V135.893ZM604.434 135.047C604.434 127.307 602.177 123.437 597.662 123.437C594.437 123.437 592.287 124.592 591.212 126.904V144.077C592.394 146.496 594.571 147.705 597.742 147.705C602.069 147.705 604.3 143.969 604.434 136.498V135.047Z" fill="#6823BC"/>
<path d="M639.869 102.918V113.762H647.045V123.195H639.869V143.15C639.869 144.789 640.165 145.931 640.756 146.576C641.347 147.221 642.516 147.544 644.263 147.544C645.607 147.544 646.735 147.463 647.649 147.302V157.017C645.204 157.797 642.65 158.186 639.99 158.186C635.314 158.186 631.86 157.084 629.63 154.881C627.399 152.677 626.284 149.331 626.284 144.843V123.195H620.72V113.762H626.284V102.918H639.869Z" fill="#6823BC"/>
<path d="M649.504 135.168C649.504 130.814 650.35 126.944 652.043 123.558C653.736 120.145 656.169 117.524 659.34 115.697C662.511 113.869 666.233 112.956 670.506 112.956C677.037 112.956 682.184 114.985 685.946 119.043C689.709 123.074 691.59 128.57 691.59 135.531V136.014C691.59 142.814 689.695 148.216 685.906 152.22C682.143 156.197 677.037 158.186 670.587 158.186C664.379 158.186 659.394 156.332 655.631 152.623C651.869 148.887 649.84 143.835 649.544 137.466L649.504 135.168ZM663.089 136.014C663.089 140.046 663.72 143.002 664.984 144.883C666.247 146.764 668.115 147.705 670.587 147.705C675.425 147.705 677.897 143.983 678.005 136.538V135.168C678.005 127.347 675.505 123.437 670.506 123.437C665.965 123.437 663.505 126.81 663.129 133.555L663.089 136.014Z" fill="#6823BC"/>
<path d="M723.961 126.057L719.486 125.735C715.213 125.735 712.472 127.078 711.262 129.766V157.38H697.677V113.762H710.416L710.859 119.365C713.144 115.092 716.328 112.956 720.413 112.956C721.865 112.956 723.128 113.117 724.203 113.439L723.961 126.057Z" fill="#6823BC"/>
<path d="M333.494 182.965L346.595 223.802L359.657 182.965H378.281V241.66H364.091V227.954L365.462 199.896L351.272 241.66H341.919L327.689 199.856L329.06 227.954V241.66H314.91V182.965H333.494Z" fill="black"/>
<path d="M384.973 219.448C384.973 215.094 385.82 211.224 387.513 207.838C389.206 204.425 391.638 201.804 394.809 199.977C397.98 198.149 401.703 197.236 405.976 197.236C412.506 197.236 417.653 199.265 421.415 203.323C425.178 207.354 427.059 212.85 427.059 219.811V220.294C427.059 227.094 425.165 232.496 421.375 236.5C417.613 240.478 412.506 242.466 406.056 242.466C399.848 242.466 394.863 240.612 391.1 236.903C387.338 233.168 385.309 228.115 385.013 221.746L384.973 219.448ZM398.558 220.294C398.558 224.326 399.19 227.282 400.453 229.163C401.716 231.044 403.584 231.985 406.056 231.985C410.894 231.985 413.366 228.263 413.474 220.818V219.448C413.474 211.627 410.975 207.717 405.976 207.717C401.434 207.717 398.975 211.09 398.599 217.835L398.558 220.294Z" fill="black"/>
<path d="M451.489 231.985C453.397 231.985 454.875 231.474 455.923 230.453C456.971 229.405 457.482 227.954 457.455 226.099H470.194C470.194 230.883 468.474 234.807 465.034 237.871C461.62 240.934 457.213 242.466 451.811 242.466C445.469 242.466 440.47 240.478 436.815 236.5C433.16 232.523 431.332 227.013 431.332 219.972V219.408C431.332 215 432.139 211.117 433.751 207.757C435.39 204.371 437.742 201.778 440.806 199.977C443.87 198.149 447.498 197.236 451.69 197.236C457.361 197.236 461.862 198.808 465.195 201.952C468.527 205.097 470.194 209.356 470.194 214.731H457.455C457.455 212.474 456.904 210.74 455.802 209.531C454.7 208.322 453.222 207.717 451.368 207.717C447.847 207.717 445.791 209.961 445.2 214.449C445.012 215.873 444.918 217.835 444.918 220.335C444.918 224.715 445.442 227.752 446.49 229.445C447.538 231.138 449.204 231.985 451.489 231.985Z" fill="black"/>
<path d="M493.454 225.414L489.624 229.244V241.66H476.039V179.7H489.624V212.595L490.995 210.781L501.234 198.042H517.52L502.242 215.981L518.528 241.66H502.968L493.454 225.414Z" fill="black"/>
</svg>
